<?xml version="1.0" standalone="no"?>
<!DOCTYPE svg PUBLIC "-//W3C//DTD SVG 20010904//EN"
 "http://www.w3.org/TR/2001/REC-SVG-20010904/DTD/svg10.dtd">
<svg version="1.0" xmlns="http://www.w3.org/2000/svg"
 width="403.000000pt" height="171.000000pt" viewBox="0 0 403.000000 171.000000"
 preserveAspectRatio="xMidYMid meet">

<g transform="translate(0.000000,171.000000) scale(0.100000,-0.100000)"
fill="#000000" stroke="none">
<path d="M726 1609 c-240 -40 -452 -200 -561 -424 -59 -120 -78 -203 -78 -340
1 -137 20 -222 78 -340 98 -202 278 -352 495 -411 101 -28 310 -26 415 4 261
75 477 301 541 567 25 101 23 277 -5 378 -78 293 -326 518 -623 567 -73 11
-191 11 -262 -1z m349 -82 c244 -80 433 -288 486 -534 17 -82 15 -235 -5 -318
-30 -125 -89 -227 -191 -331 -77 -78 -104 -98 -185 -138 -111 -54 -202 -76
-320 -76 -118 0 -209 22 -316 74 -269 133 -427 423 -393 722 34 303 258 549
564 620 94 22 262 13 360 -19z"/>
<path d="M800 665 l0 -225 50 0 49 0 3 93 3 92 103 3 102 3 0 -96 0 -95 55 0
55 0 0 225 0 225 -55 0 -55 0 0 -85 0 -85 -105 0 -105 0 0 85 0 85 -50 0 -50
0 0 -225z"/>
<path d="M1840 505 l0 -155 35 0 35 0 0 65 0 66 73 -3 72 -3 3 -62 3 -63 34 0
35 0 0 155 0 155 -35 0 -35 0 0 -60 0 -60 -75 0 -75 0 0 60 0 60 -35 0 -35 0
0 -155z"/>
<path d="M2240 505 l0 -155 120 0 120 0 0 30 0 30 -85 0 -85 0 0 35 0 35 76 0
75 0 -3 28 c-3 26 -5 27 -75 30 l-73 3 0 34 0 35 85 0 c84 0 85 0 85 25 l0 25
-120 0 -120 0 0 -155z"/>
<path d="M2672 643 c-9 -17 -87 -187 -118 -260 l-14 -33 35 0 c32 0 38 4 51
35 l14 35 74 0 74 0 12 -35 c11 -32 15 -35 50 -35 l38 0 -68 153 -68 152 -35
3 c-26 2 -38 -2 -45 -15z m82 -151 c7 -21 4 -22 -38 -22 -26 0 -46 5 -46 11 0
6 10 33 22 61 l22 51 16 -39 c10 -21 20 -49 24 -62z"/>
<path d="M2960 505 l0 -155 115 0 115 0 0 30 0 30 -80 0 -80 0 0 125 0 125
-35 0 -35 0 0 -155z"/>
<path d="M3240 630 c0 -29 1 -30 50 -30 l50 0 0 -125 0 -125 35 0 35 0 0 124
0 125 48 3 c43 3 47 5 50 31 l3 27 -135 0 -136 0 0 -30z"/>
<path d="M3590 505 l0 -155 35 0 35 0 0 65 0 66 73 -3 72 -3 3 -62 3 -63 34 0
35 0 0 155 0 155 -35 0 -35 0 0 -60 0 -60 -75 0 -75 0 0 60 0 60 -35 0 -35 0
0 -155z"/>
</g>
</svg>
